<?xml version="1.0" encoding="UTF-8"?>
<svg width="18px" height="18px" viewBox="0 0 18 18" version="1.1" xmlns="http://www.w3.org/2000/svg" xmlns:xlink="http://www.w3.org/1999/xlink">
    <!-- Generator: Sketch 51.1 (57501) - http://www.bohemiancoding.com/sketch -->
    <title>Fill 1</title>
    <desc>Created with Sketch.</desc>
    <defs></defs>
    <g id="方案1" stroke="none" stroke-width="1" fill="none" fill-rule="evenodd">
        <g id="6.1首页-账户-方案二" transform="translate(-324.000000, -20.000000)" fill="#4E5383">
            <g id="导航" transform="translate(18.000000, 15.000000)">
                <path d="M320.691176,20.8382353 L323.095588,17.8382353 L321.860294,15.875 L322.058824,14.9705882 L324,13.7794118 L323.139706,10.0073529 L320.867647,9.74264706 L320.294118,9.01470588 L320.536765,6.72058824 L317.051471,5.02205882 L315.441176,6.63235294 L314.514706,6.63235294 L312.904412,5 L309.419118,6.65441176 L309.683824,8.92647059 L309.110294,9.65441176 L306.838235,9.89705882 L306,13.6691176 L307.941176,14.9044118 L308.139706,15.7867647 L306.926471,17.7058824 L309.330882,20.75 L311.492647,20 L312.330882,20.4191176 L313.080882,22.5808824 L316.963235,22.625 L317.713235,20.4632353 L318.551471,20.0661765 L320.691176,20.8382353 Z M315.970588,21.2352941 L314.073529,21.2132353 L313.455882,19.4264706 L311.580882,18.5220588 L309.816176,19.1397059 L308.625,17.6397059 L309.617647,16.0514706 L309.154412,14.0220588 L307.566176,13.0073529 L307.963235,11.1764706 L309.838235,10.9779412 L311.117647,9.36764706 L310.897059,7.49264706 L312.595588,6.67647059 L313.919118,8.02205882 L315.992647,8.04411765 L317.316176,6.72058824 L319.014706,7.55882353 L318.816176,9.43382353 L320.117647,11.0661765 L321.992647,11.2867647 L322.411765,13.1397059 L320.823529,14.1323529 L320.360294,16.1617647 L321.375,17.75 L320.205882,19.2279412 L318.441176,18.5882353 L316.566176,19.4705882 L315.970588,21.2352941 Z M317.669118,11.6617647 C316.477941,10.1617647 314.294118,9.89705882 312.816176,11.0882353 C311.338235,12.2794118 311.095588,14.4411765 312.286765,15.9411765 C313.477941,17.4411765 315.661765,17.7058824 317.139706,16.5147059 C318.639706,15.3455882 318.860294,13.1617647 317.669118,11.6617647 Z M313.301471,15.1470588 C312.551471,14.1985294 312.705882,12.8308824 313.632353,12.1029412 C314.558824,11.375 315.926471,11.5294118 316.676471,12.4558824 C317.426471,13.4044118 317.272059,14.7720588 316.345588,15.5 C315.397059,16.25 314.029412,16.0955882 313.301471,15.1470588 Z" id="Fill-1"></path>
            </g>
        </g>
    </g>
</svg>