<?xml version="1.0" encoding="UTF-8"?>
<svg width="12px" height="12px" viewBox="0 0 12 12" version="1.1" xmlns="http://www.w3.org/2000/svg" xmlns:xlink="http://www.w3.org/1999/xlink">
    <!-- Generator: Sketch 53.2 (72643) - https://sketchapp.com -->
    <title>签名</title>
    <desc>Created with Sketch.</desc>
    <g id="多重签名" stroke="none" stroke-width="1" fill="none" fill-rule="evenodd">
        <g id="首页2" transform="translate(-232.000000, -156.000000)" fill="#FFFFFF" fill-rule="nonzero">
            <g id="更多" transform="translate(224.000000, 93.000000)">
                <g id="备份" transform="translate(8.000000, 33.000000)">
                    <g id="签名" transform="translate(0.000000, 30.000000)">
                        <polygon id="路径" points="11.1642152 4.28355997 11.1642152 11.1364964 1 11.1364964 1 1.21807303 7.71602773 1.216358 7.71602773 0.011769962 0.00178535866 0.011769962 0.00178535866 12.0008482 11.9873924 12.0008482 11.9873924 4.28355997"></polygon>
                        <path d="M1.95849316,10.0097162 L4.70223891,9.70767737 L11.9803539,2.43118138 L9.55491926,0.00566442905 L2.27801166,7.28187229 L1.95849316,10.0097162 Z M2.75097806,9.23594578 L2.88760488,7.88578529 L2.88778324,7.88560693 L4.10043882,9.0982625 L4.09722826,9.10147306 L2.75097806,9.23594578 Z M3.44073903,7.33262371 L8.47864352,2.29441736 L9.69151862,3.50727875 L4.65342205,8.54530673 L3.44073903,7.33262371 Z M10.7678218,2.4309893 L10.2444744,2.95432295 L9.0315856,1.74143413 L9.55491924,1.21807303 L10.7678218,2.4309893 Z" id="形状"></path>
                    </g>
                </g>
            </g>
        </g>
    </g>
</svg>