<?xml version="1.0" encoding="UTF-8"?>
<svg width="17px" height="16px" viewBox="0 0 17 16" version="1.1" xmlns="http://www.w3.org/2000/svg" xmlns:xlink="http://www.w3.org/1999/xlink">
    <!-- Generator: Sketch 51.1 (57501) - http://www.bohemiancoding.com/sketch -->
    <title>交易所</title>
    <desc>Created with Sketch.</desc>
    <defs></defs>
    <g id="TRONLink" stroke="none" stroke-width="1" fill="none" fill-rule="evenodd">
        <g id="6.1首页-账户-方案二" transform="translate(-227.000000, -21.000000)">
            <g id="导航" transform="translate(20.000000, 15.000000)">
                <g id="交易所" transform="translate(207.000000, 5.000000)">
                    <g id="Group-11" transform="translate(0.000000, 7.555556)" fill="#4E5383" fill-rule="nonzero">
                        <path d="M0.894736842,4.9403429 L5.36842105,4.9403429 L5.36842105,9.44444444 L0.894736842,9.44444444 L0.894736842,4.9403429 Z M2.68421053,5.84116321 L2.68421053,8.54362414 L3.57894737,8.54362414 L3.57894737,5.84116321 L2.68421053,5.84116321 Z" id="Combined-Shape"></path>
                        <path d="M6.26315789,2.83333333 L10.7368421,2.83333333 L10.7368421,9.44444444 L6.26315789,9.44444444 L6.26315789,2.83333333 Z M8.05263158,3.85042735 L8.05263158,8.42735043 L8.94736842,8.42735043 L8.94736842,3.85042735 L8.05263158,3.85042735 Z" id="Combined-Shape"></path>
                        <path d="M11.6315789,0.436241362 L16.1052632,0.436241362 L16.1052632,9.44444444 L11.6315789,9.44444444 L11.6315789,0.436241362 Z M13.4210526,1.38068581 L13.4210526,8.31841906 L14.3157895,8.31841906 L14.3157895,1.38068581 L13.4210526,1.38068581 Z" id="Combined-Shape"></path>
                    </g>
                    <g id="Group-9" transform="translate(0.944444, 0.000000)">
                        <polyline id="Path-8" stroke="#4E5383" stroke-width="2" points="0.688042535 8.16520182 5.11800808 4.5024821 7.85431271 7.21314845 12.9375572 3.4429796"></polyline>
                        <polygon id="Path-10" fill="#4E5383" transform="translate(13.081215, 3.283206) rotate(7.000000) translate(-13.081215, -3.283206) " points="10.847924 1.33574325 14.9268213 5.44970713 15.3145061 1.11670403"></polygon>
                    </g>
                </g>
            </g>
        </g>
    </g>
</svg>