<?xml version="1.0" encoding="UTF-8"?>
<svg width="20px" height="21px" viewBox="0 0 20 21" version="1.1" xmlns="http://www.w3.org/2000/svg" xmlns:xlink="http://www.w3.org/1999/xlink">
    <!-- Generator: Sketch 51.1 (57501) - http://www.bohemiancoding.com/sketch -->
    <title>锁定设置</title>
    <desc>Created with Sketch.</desc>
    <defs></defs>
    <g id="方案1" stroke="none" stroke-width="1" fill="none" fill-rule="evenodd">
        <g id="9.1设置" transform="translate(-20.000000, -122.000000)">
            <g id="锁定设置" transform="translate(21.000000, 124.000000)">
                <path d="M2.92451029,1.83257201 C3.79532947,1.03534806 4.82347742,0.407169993 5.95699195,-5.12923037e-14 C6.62652093,0.961190279 7.73980334,1.590205 9,1.590205 C10.2601967,1.590205 11.3734791,0.961190279 12.0430081,-4.63518113e-14 C13.1765226,0.407169993 14.2046705,1.03534806 15.0754897,1.83257201 C14.912807,2.24976125 14.8235294,2.70367482 14.8235294,3.17844029 C14.8235294,4.99271379 16.1272655,6.50248343 17.8489808,6.82199241 C17.948158,7.35706796 18,7.90875877 18,8.47255794 C18,9.03635711 17.948158,9.58804792 17.8489808,10.1231235 C16.1272655,10.4426324 14.8235294,11.9524021 14.8235294,13.7666756 C14.8235294,14.2414411 14.912807,14.6953546 15.0754897,15.1125439 C14.2046705,15.9097678 13.1765226,16.5379459 12.0430081,16.9451159 C11.3734791,15.9839256 10.2601967,15.3549109 9,15.3549109 C7.73980334,15.3549109 6.62652093,15.9839256 5.95699195,16.9451159 C4.82347742,16.5379459 3.79532947,15.9097678 2.92451029,15.1125439 C3.08719301,14.6953546 3.17647059,14.2414411 3.17647059,13.7666756 C3.17647059,11.9524021 1.87273454,10.4426324 0.151019242,10.1231235 C0.0518420466,9.58804792 0,9.03635711 0,8.47255794 C0,7.90875877 0.0518420466,7.35706796 0.151019242,6.82199241 C1.87273454,6.50248343 3.17647059,4.99271379 3.17647059,3.17844029 C3.17647059,2.70367482 3.08719301,2.24976125 2.92451029,1.83257201 Z" id="Combined-Shape" stroke="#515060" stroke-width="2"></path>
                <rect id="Combined-Shape" fill-opacity="0.5" fill="#515060" x="5.89071117" y="6.63703333" width="6.21857767" height="4.73796394"></rect>
                <path d="M6.77907941,6.63703333 C6.95777202,5.62865957 7.88410642,4.86029685 9,4.86029685 C10.1158936,4.86029685 11.042228,5.62865957 11.2209206,6.63703333 L10.4540725,6.63703333 C10.2874041,6.02397851 9.69957923,5.57099144 9,5.57099144 C8.30042077,5.57099144 7.71259587,6.02397851 7.54592748,6.63703333 L6.77907941,6.63703333 Z" id="Combined-Shape" fill-opacity="0.5" fill="#515060"></path>
            </g>
        </g>
    </g>
</svg>